<svg xmlns="http://www.w3.org/2000/svg" xmlns:xlink="http://www.w3.org/1999/xlink" width="1920" zoomAndPan="magnify" viewBox="0 0 1440 809.999993" height="1080" preserveAspectRatio="xMidYMid meet" version="1.0"><defs><clipPath id="2d1626680b"><path d="M 615 342 L 741 342 L 741 468 L 615 468 Z M 615 342 " clip-rule="nonzero"/></clipPath><clipPath id="5fe424cb7d"><path d="M 645.574219 312.386719 L 770.4375 372.753906 L 710.066406 497.617188 L 585.207031 437.246094 Z M 645.574219 312.386719 " clip-rule="nonzero"/></clipPath><clipPath id="90503c0309"><path d="M 709.71875 345.121094 L 740.011719 432.125 C 740.691406 434.082031 739.65625 436.21875 737.703125 436.898438 L 650.699219 467.191406 C 648.742188 467.871094 646.605469 466.835938 645.925781 464.882812 L 615.632812 377.878906 C 614.953125 375.921875 615.984375 373.785156 617.941406 373.105469 L 704.945312 342.8125 C 706.898438 342.132812 709.039062 343.164062 709.71875 345.121094 Z M 709.71875 345.121094 " clip-rule="nonzero"/></clipPath><clipPath id="bf7f92a51e"><path d="M 0 0 L 125.878906 0 L 125.878906 126 L 0 126 Z M 0 0 " clip-rule="nonzero"/></clipPath><clipPath id="7cbabddaf0"><path d="M 30.574219 -29.613281 L 155.4375 30.753906 L 95.066406 155.617188 L -29.792969 95.246094 Z M 30.574219 -29.613281 " clip-rule="nonzero"/></clipPath><clipPath id="157d887d20"><path d="M 94.71875 3.121094 L 125.011719 90.125 C 125.691406 92.082031 124.65625 94.21875 122.703125 94.898438 L 35.699219 125.191406 C 33.742188 125.871094 31.605469 124.835938 30.925781 122.882812 L 0.632812 35.878906 C -0.046875 33.921875 0.984375 31.785156 2.941406 31.105469 L 89.945312 0.8125 C 91.898438 0.132812 94.039062 1.164062 94.71875 3.121094 Z M 94.71875 3.121094 " clip-rule="nonzero"/></clipPath><clipPath id="593b2e6807"><rect x="0" width="126" y="0" height="126"/></clipPath></defs><rect x="-144" width="1728" fill="#ffffff" y="-80.999999" height="971.999992" fill-opacity="1"/><rect x="-144" width="1728" fill="#000000" y="-80.999999" height="971.999992" fill-opacity="1"/><path stroke-linecap="round" transform="matrix(0.646211, 0.380673, -0.380673, 0.646211, 584.244937, 348.507571)" fill="none" stroke-linejoin="miter" d="M 10.497361 10.50034 L 268.769251 10.499309 " stroke="#c4e879" stroke-width="21" stroke-opacity="1" stroke-miterlimit="4"/><g clip-path="url(#2d1626680b)"><g clip-path="url(#5fe424cb7d)"><g clip-path="url(#90503c0309)"><g transform="matrix(1, 0, 0, 1, 615, 342)"><g clip-path="url(#593b2e6807)"><g clip-path="url(#bf7f92a51e)"><g clip-path="url(#7cbabddaf0)"><g clip-path="url(#157d887d20)"><path fill="#f4f6ff" d="M 30.0625 -31.085938 L 156.90625 30.242188 L 95.578125 157.085938 L -31.265625 95.757812 Z M 30.0625 -31.085938 " fill-opacity="1" fill-rule="nonzero"/></g></g></g></g></g></g></g></g></svg>