<svg xmlns="http://www.w3.org/2000/svg" xmlns:xlink="http://www.w3.org/1999/xlink" width="1920" zoomAndPan="magnify" viewBox="0 0 1440 809.999993" height="1080" preserveAspectRatio="xMidYMid meet" version="1.0"><defs><g/><clipPath id="31078b3f93"><rect x="0" width="264" y="0" height="70"/></clipPath><clipPath id="e4559b4293"><path d="M 532 415 L 562 415 L 562 445 L 532 445 Z M 532 415 " clip-rule="nonzero"/></clipPath><clipPath id="124bf5a7d3"><path d="M 542.078125 406.375 L 570.726562 424.917969 L 552.179688 453.566406 L 523.535156 435.019531 Z M 542.078125 406.375 " clip-rule="nonzero"/></clipPath><clipPath id="3c2e46a047"><path d="M 556.402344 415.648438 L 561.453125 439.242188 L 537.859375 444.292969 L 532.808594 420.699219 Z M 556.402344 415.648438 " clip-rule="nonzero"/></clipPath><clipPath id="92a4009541"><path d="M 0.800781 0.441406 L 29.601562 0.441406 L 29.601562 29.480469 L 0.800781 29.480469 Z M 0.800781 0.441406 " clip-rule="nonzero"/></clipPath><clipPath id="ad25fc0800"><path d="M 10.078125 -8.625 L 38.726562 9.917969 L 20.179688 38.566406 L -8.464844 20.019531 Z M 10.078125 -8.625 " clip-rule="nonzero"/></clipPath><clipPath id="8d9bb67825"><path d="M 24.402344 0.648438 L 29.453125 24.242188 L 5.859375 29.292969 L 0.808594 5.699219 Z M 24.402344 0.648438 " clip-rule="nonzero"/></clipPath><clipPath id="bdc8133f93"><rect x="0" width="30" y="0" height="30"/></clipPath></defs><path stroke-linecap="butt" transform="matrix(0.645085, 0.382577, -0.382577, 0.645085, 525.728836, 416.253599)" fill="none" stroke-linejoin="miter" d="M 0.00179166 2.500294 L 67.641889 2.502443 " stroke="#000000" stroke-width="5" stroke-opacity="1" stroke-miterlimit="4"/><g transform="matrix(1, 0, 0, 1, 588, 402)"><g clip-path="url(#31078b3f93)"><g fill="#000000" fill-opacity="1"><g transform="translate(0.446227, 51.770977)"><g><path d="M 4.265625 0 L 4.265625 -36.859375 L 12.375 -36.859375 C 17.914062 -29.304688 21.890625 -23.660156 24.296875 -19.921875 C 26.703125 -16.191406 28.675781 -12.535156 30.21875 -8.953125 L 32.484375 -9.90625 C 31.609375 -12.425781 30.957031 -14.644531 30.53125 -16.5625 C 30.113281 -18.476562 29.828125 -20.75 29.671875 -23.375 C 29.515625 -26.007812 29.4375 -29.734375 29.4375 -34.546875 L 29.4375 -36.859375 L 37.59375 -36.859375 L 37.59375 0 L 29.484375 0 C 23.898438 -7.550781 19.921875 -13.203125 17.546875 -16.953125 C 15.179688 -20.710938 13.226562 -24.363281 11.6875 -27.90625 L 9.375 -26.953125 C 10.25 -24.429688 10.894531 -22.210938 11.3125 -20.296875 C 11.738281 -18.378906 12.03125 -16.101562 12.1875 -13.46875 C 12.34375 -10.84375 12.421875 -7.125 12.421875 -2.3125 L 12.421875 0 Z M 4.265625 0 "/></g></g></g><g fill="#000000" fill-opacity="1"><g transform="translate(42.313006, 51.770977)"><g><path d="M 22.59375 0 C 22.695312 -1.019531 22.890625 -1.941406 23.171875 -2.765625 C 23.453125 -3.585938 23.875 -4.523438 24.4375 -5.578125 L 22.21875 -6.734375 C 21.195312 -4.273438 19.914062 -2.445312 18.375 -1.25 C 16.832031 -0.0625 14.972656 0.53125 12.796875 0.53125 C 9.804688 0.53125 7.488281 -0.519531 5.84375 -2.625 C 4.195312 -4.738281 3.375 -7.671875 3.375 -11.421875 L 3.375 -26.59375 L 11.15625 -26.59375 L 11.15625 -12.796875 C 11.15625 -10.617188 11.640625 -8.953125 12.609375 -7.796875 C 13.578125 -6.640625 14.988281 -6.0625 16.84375 -6.0625 C 18.675781 -6.0625 20.070312 -6.640625 21.03125 -7.796875 C 22 -8.953125 22.484375 -10.617188 22.484375 -12.796875 L 22.484375 -26.59375 L 30.28125 -26.59375 L 30.28125 0 Z M 22.59375 0 "/></g></g></g><g fill="#000000" fill-opacity="1"><g transform="translate(76.491046, 51.770977)"><g><path d="M 3.890625 -26.59375 L 11.578125 -26.59375 C 11.515625 -25.675781 11.34375 -24.8125 11.0625 -24 C 10.78125 -23.195312 10.320312 -22.21875 9.6875 -21.0625 L 11.953125 -19.84375 C 12.972656 -22.34375 14.21875 -24.179688 15.6875 -25.359375 C 17.164062 -26.535156 18.921875 -27.125 20.953125 -27.125 C 23.128906 -27.125 24.910156 -26.488281 26.296875 -25.21875 C 27.679688 -23.957031 28.566406 -22.222656 28.953125 -20.015625 L 31.015625 -20.015625 C 31.296875 -22.148438 32.25 -23.867188 33.875 -25.171875 C 35.507812 -26.472656 37.488281 -27.125 39.8125 -27.125 C 42.71875 -27.125 45.015625 -26.085938 46.703125 -24.015625 C 48.390625 -21.941406 49.234375 -19.113281 49.234375 -15.53125 L 49.234375 0 L 41.4375 0 L 41.4375 -13.84375 C 41.4375 -15.988281 40.972656 -17.628906 40.046875 -18.765625 C 39.117188 -19.910156 37.773438 -20.484375 36.015625 -20.484375 C 34.222656 -20.484375 32.828125 -19.894531 31.828125 -18.71875 C 30.828125 -17.539062 30.328125 -15.882812 30.328125 -13.75 L 30.328125 0 L 22.796875 0 L 22.796875 -13.84375 C 22.796875 -15.988281 22.332031 -17.628906 21.40625 -18.765625 C 20.476562 -19.910156 19.132812 -20.484375 17.375 -20.484375 C 15.582031 -20.484375 14.1875 -19.894531 13.1875 -18.71875 C 12.1875 -17.539062 11.6875 -15.882812 11.6875 -13.75 L 11.6875 0 L 3.890625 0 Z M 3.890625 -26.59375 "/></g></g></g><g fill="#000000" fill-opacity="1"><g transform="translate(129.153674, 51.770977)"><g><path d="M 17.328125 0.6875 C 14.484375 0.6875 11.925781 0.0820312 9.65625 -1.125 C 7.394531 -2.34375 5.625 -4.003906 4.34375 -6.109375 C 3.0625 -8.210938 2.421875 -10.597656 2.421875 -13.265625 C 2.421875 -15.929688 3.0625 -18.328125 4.34375 -20.453125 C 5.625 -22.578125 7.40625 -24.234375 9.6875 -25.421875 C 11.96875 -26.617188 14.53125 -27.21875 17.375 -27.21875 C 20.25 -27.21875 22.828125 -26.613281 25.109375 -25.40625 C 27.398438 -24.195312 29.175781 -22.53125 30.4375 -20.40625 C 31.695312 -18.28125 32.328125 -15.882812 32.328125 -13.21875 C 32.328125 -12.445312 32.273438 -11.65625 32.171875 -10.84375 L 10 -10.84375 C 10.351562 -9.15625 11.1875 -7.800781 12.5 -6.78125 C 13.820312 -5.769531 15.429688 -5.265625 17.328125 -5.265625 C 18.734375 -5.265625 19.992188 -5.535156 21.109375 -6.078125 C 22.234375 -6.617188 23.148438 -7.398438 23.859375 -8.421875 L 31.59375 -8.421875 C 30.539062 -5.617188 28.738281 -3.398438 26.1875 -1.765625 C 23.644531 -0.128906 20.691406 0.6875 17.328125 0.6875 Z M 24.859375 -15.640625 C 24.472656 -17.390625 23.609375 -18.773438 22.265625 -19.796875 C 20.929688 -20.816406 19.300781 -21.328125 17.375 -21.328125 C 15.445312 -21.328125 13.820312 -20.804688 12.5 -19.765625 C 11.1875 -18.734375 10.335938 -17.359375 9.953125 -15.640625 Z M 24.859375 -15.640625 "/></g></g></g><g fill="#000000" fill-opacity="1"><g transform="translate(163.542363, 51.770977)"><g><path d="M 21.53125 -0.109375 C 19.675781 0.0664062 18.132812 0.15625 16.90625 0.15625 C 14.300781 0.15625 12.242188 -0.179688 10.734375 -0.859375 C 9.234375 -1.546875 8.148438 -2.617188 7.484375 -4.078125 C 6.816406 -5.535156 6.484375 -7.492188 6.484375 -9.953125 L 6.484375 -20.109375 L 1.796875 -20.109375 L 1.796875 -26.53125 C 3.441406 -26.53125 4.691406 -26.75 5.546875 -27.1875 C 6.410156 -27.632812 7.007812 -28.390625 7.34375 -29.453125 C 7.675781 -30.523438 7.84375 -32.097656 7.84375 -34.171875 L 15.421875 -34.171875 C 15.285156 -32.203125 14.875 -30.703125 14.1875 -29.671875 C 13.5 -28.640625 12.265625 -27.613281 10.484375 -26.59375 L 11.640625 -24.53125 C 13.148438 -25.375 14.570312 -25.9375 15.90625 -26.21875 C 17.238281 -26.5 19.0625 -26.625 21.375 -26.59375 L 21.375 -20.109375 L 14.265625 -20.109375 L 14.265625 -10.265625 C 14.265625 -8.898438 14.546875 -7.9375 15.109375 -7.375 C 15.671875 -6.8125 16.722656 -6.53125 18.265625 -6.53125 C 18.972656 -6.53125 20.0625 -6.617188 21.53125 -6.796875 Z M 21.53125 -0.109375 "/></g></g></g><g fill="#000000" fill-opacity="1"><g transform="translate(187.977817, 51.770977)"><g><path d="M 3.890625 -26.59375 L 11.265625 -26.59375 C 11.234375 -25.539062 11.082031 -24.515625 10.8125 -23.515625 C 10.550781 -22.515625 10.125 -21.3125 9.53125 -19.90625 L 11.953125 -18.84375 C 12.828125 -21.625 13.972656 -23.609375 15.390625 -24.796875 C 16.816406 -25.992188 18.757812 -26.59375 21.21875 -26.59375 C 21.957031 -26.59375 22.519531 -26.570312 22.90625 -26.53125 L 22.90625 -19.265625 C 21.851562 -19.335938 21.097656 -19.375 20.640625 -19.375 C 17.410156 -19.375 15.109375 -18.65625 13.734375 -17.21875 C 12.367188 -15.78125 11.6875 -13.425781 11.6875 -10.15625 L 11.6875 0 L 3.890625 0 Z M 3.890625 -26.59375 "/></g></g></g><g fill="#000000" fill-opacity="1"><g transform="translate(212.044633, 51.770977)"><g><path d="M 3.890625 -26.59375 L 11.6875 -26.59375 L 11.6875 0 L 3.890625 0 Z M 3.21875 -39.015625 L 12.21875 -39.015625 L 12.21875 -31.125 L 3.21875 -31.125 Z M 3.21875 -39.015625 "/></g></g></g><g fill="#000000" fill-opacity="1"><g transform="translate(227.632775, 51.770977)"><g><path d="M 11.90625 0.625 C 8.957031 0.625 6.613281 -0.0664062 4.875 -1.453125 C 3.132812 -2.835938 2.265625 -4.707031 2.265625 -7.0625 C 2.265625 -9.300781 3.019531 -11.140625 4.53125 -12.578125 C 6.039062 -14.023438 8.109375 -14.890625 10.734375 -15.171875 L 19.21875 -16 C 20.238281 -16.113281 21.035156 -16.40625 21.609375 -16.875 C 22.191406 -17.351562 22.484375 -17.957031 22.484375 -18.6875 C 22.484375 -19.570312 22.039062 -20.257812 21.15625 -20.75 C 20.28125 -21.238281 19.054688 -21.484375 17.484375 -21.484375 C 15.796875 -21.484375 14.414062 -21.175781 13.34375 -20.5625 C 12.28125 -19.945312 11.609375 -19.0625 11.328125 -17.90625 L 3.640625 -17.90625 C 4.191406 -20.851562 5.671875 -23.140625 8.078125 -24.765625 C 10.484375 -26.398438 13.582031 -27.21875 17.375 -27.21875 C 21.476562 -27.21875 24.644531 -26.242188 26.875 -24.296875 C 29.101562 -22.347656 30.21875 -19.566406 30.21875 -15.953125 L 30.21875 -8.578125 C 30.21875 -7.628906 30.460938 -7.003906 30.953125 -6.703125 C 31.453125 -6.410156 32.421875 -6.316406 33.859375 -6.421875 L 33.859375 0 C 32.984375 0.101562 32.160156 0.15625 31.390625 0.15625 C 27.453125 0.15625 25.484375 -1.191406 25.484375 -3.890625 C 25.484375 -4.628906 25.609375 -5.382812 25.859375 -6.15625 L 23.640625 -6.890625 C 22.660156 -4.472656 21.160156 -2.613281 19.140625 -1.3125 C 17.117188 -0.0195312 14.707031 0.625 11.90625 0.625 Z M 13.953125 -5.0625 C 16.128906 -5.0625 18.050781 -5.742188 19.71875 -7.109375 C 21.382812 -8.472656 22.65625 -10.40625 23.53125 -12.90625 L 21.59375 -14 C 20.957031 -13.09375 20.253906 -12.421875 19.484375 -11.984375 C 18.710938 -11.546875 17.660156 -11.238281 16.328125 -11.0625 L 13.421875 -10.6875 C 12.304688 -10.550781 11.441406 -10.21875 10.828125 -9.6875 C 10.210938 -9.164062 9.90625 -8.5 9.90625 -7.6875 C 9.90625 -6.882812 10.253906 -6.242188 10.953125 -5.765625 C 11.648438 -5.296875 12.648438 -5.0625 13.953125 -5.0625 Z M 13.953125 -5.0625 "/></g></g></g></g></g><g clip-path="url(#e4559b4293)"><g clip-path="url(#124bf5a7d3)"><g clip-path="url(#3c2e46a047)"><g transform="matrix(1, 0, 0, 1, 532, 415)"><g clip-path="url(#bdc8133f93)"><g clip-path="url(#92a4009541)"><g clip-path="url(#ad25fc0800)"><g clip-path="url(#8d9bb67825)"><path fill="#3b70bb" d="M 10.078125 -8.625 L 38.726562 9.917969 L 20.179688 38.566406 L -8.464844 20.019531 Z M 10.078125 -8.625 " fill-opacity="1" fill-rule="nonzero"/></g></g></g></g></g></g></g></g></svg>